<?xml version="1.0" encoding="UTF-8"?>
<svg version="1.1" viewBox="0 0 960 960" xmlns="http://www.w3.org/2000/svg">
<path d="m436.16 748.46c-6.6023-0.70922-16.894-3.2674-22.4-5.5681-13.221-5.5242-22.552-15.536-26.699-28.649-1.8052-5.7079-2.2-8.5776-2.003-14.56 0.19635-5.9632 1.18-10.752 3.418-16.64 2.9111-7.6591 4.7684-10.041 9.7604-12.52 2.898-1.4386 3.1763-1.5113 6.321-1.6512 4.0084-0.17828 6.2191 0.24198 9.2507 1.7586 3.9788 1.9906 7.0727 5.7874 8.4012 10.31 0.57984 1.974 0.67648 7.0744 0.17527 9.2478-0.17578 0.76224-0.82013 2.6668-1.4319 4.2324-0.61174 1.5656-1.2797 3.823-1.4844 5.0167-0.33917 1.9779-0.30842 2.3618 0.34723 4.332 0.8993 2.7024 3.1717 5.3149 5.7561 6.6174 2.4543 1.237 7.8312 2.8607 11.868 3.584 4.5205 0.80992 13.177 1.0996 18.24 0.61043 11.434-1.1048 20.384-3.6537 36.402-10.367 8.6367-3.6198 14.937-6.8721 26.296-13.575 7.2392-4.2715 8.1653-4.6397 12.108-4.8151 4.0465-0.17997 6.158 0.23408 9.1938 1.8029 3.1685 1.6374 5.4975 4.064 7.2016 7.5037 1.3374 2.6996 1.3969 2.9457 1.5375 6.357 0.0903 2.1914-5e-3 4.2384-0.24992 5.3518-0.49635 2.2591-2.2664 5.6889-3.8846 7.5273-1.1806 1.3412-5.0634 4.0481-9.336 6.5085-15.744 9.0662-21.373 11.85-35.108 17.362-13.127 5.268-23.535 8.2341-34.408 9.8055-4.132 0.59721-24.847 0.89219-29.272 0.41683zm-305.92-61.29c-0.616-0.0708-2.56-0.28259-4.32-0.47053-3.6862-0.39366-11.248-1.9292-14.935-3.0328-6.4042-1.9169-15.01-6.0594-20.092-9.6718-3.714-2.6399-9.0219-7.683-11.695-11.112-14.262-18.292-18.676-41.599-11.515-60.8 2.7167-7.284 7.4235-15.859 11.848-21.586 0.96202-1.2451 1.7491-2.3967 1.7491-2.5591 0-0.16243-1.188-0.88973-2.64-1.6162-9.2246-4.6156-16.672-10.943-21.651-18.396-4.5511-6.8126-8.2467-15.93-9.5217-23.49-0.70953-4.2073-0.71816-15.297-0.01533-19.723 1.6825-10.596 5.5213-20.112 11.642-28.86 7.1851-10.268 14.89-16.819 27.024-22.976 25.36-12.867 57.423-14.2 91.824-3.8177 18.373 5.5451 32.648 13.17 54.697 29.215 4.2708 3.108 5.9212 4.3809 11.864 9.1502 2.2984 1.8446 4.3206 4.6015 5.4732 7.462 0.65044 1.6141 0.73978 2.3783 0.74126 6.34l2e-3 4.5047-1.4148 2.8553c-1.8807 3.7954-4.0362 5.9555-7.8074 7.8238-2.7662 1.3704-2.8976 1.4009-6.6156 1.5334-6.0378 0.21526-8.4898-0.75971-14.882-5.9177-8.6885-7.0107-20.77-15.351-29.529-20.383-5.7002-3.2754-7.4998-4.1626-12.441-6.1335-15.686-6.2564-36.187-10.081-48.718-9.0882-10.083 0.79882-18.951 2.9928-26.56 6.5713-8.9049 4.1878-16.076 11.493-19.271 19.632-1.8205 4.6377-2.3107 7.1829-2.3145 12.018-0.0029 3.8503 0.07362 4.3863 1.0293 7.2 2.5982 7.6498 6.9789 11.856 16.932 16.258 1.6321 0.72189 4.0081 1.5994 5.28 1.9501 2.6122 0.72029 9.8335 2.0302 16.153 2.93 5.3486 0.7616 7.2345 1.304 10.685 3.0728 3.6377 1.8649 5.889 4.196 7.7029 7.9764 1.2712 2.6492 1.3408 2.95 1.471 6.35 0.20387 5.3264-1.0501 9.4075-4.061 13.217-2.2418 2.8361-5.517 4.7964-22.269 13.329-5.656 2.8809-7.5577 4.5807-10.329 9.2328-4.4319 7.44-6.0784 13.941-4.8844 19.284 1.7843 7.9845 4.7897 13.618 9.8358 18.438 3.7595 3.5905 8.3515 5.9212 14.792 7.5077 14.847 3.6575 29.587 2.2204 44.496-4.3388 6.99-3.075 14.237-7.6174 26.19-16.415 11.477-8.4477 23.512-21.705 38.253-42.139 7.0837-9.8194 8.4506-11.086 13.615-12.617 2.1546-0.63879 7.2283-0.67642 9.504-0.0705 4.187 1.1148 8.3103 4.375 10.317 8.1572 1.4856 2.8001 1.9534 4.802 1.9534 8.358 0 5.6108-0.65446 6.9953-8.3197 17.6-14.714 20.357-27.738 34.965-39.479 44.282-20.499 16.268-38.487 26.142-55.187 30.294-8.6177 2.1428-12.59 2.5954-23.726 2.7038-5.368 0.0523-10.264 0.0371-10.88-0.0338zm389.12-26.249c-19.46-1.0802-36.542-3.3793-56.823-7.6475-8.0481-1.6938-18.641-4.2066-23.41-5.5534-1.8961-0.53542-5.1034-1.4234-7.1274-1.9733-5.5831-1.5168-18.319-5.9045-26.56-9.1505-18.126-7.1392-44.789-20.465-60.619-30.298-1.4193-0.88154-3.6606-2.259-4.9806-3.0609-5.5341-3.3622-20.167-13.365-25.149-17.191-11.872-9.118-15.359-12.968-19.638-21.682-3.5117-7.1519-4.8094-12.829-4.8116-21.05-3e-3 -11.343 1.3911-14.889 15.202-38.672 11.69-20.13 33.663-52.064 48.992-71.2 11.098-13.855 16.76-20.167 26.844-29.929 24.868-24.072 43.761-38.432 68.32-51.929 14.353-7.8882 41.503-20.247 55.68-25.347 1.144-0.41152 3.736-1.3473 5.76-2.0794 6.9412-2.511 26.28-8.4851 33.28-10.281 27.069-6.9442 52.582-10.673 85.44-12.488 9.2107-0.50867 38.708-0.50932 47.04-9.6e-4 26.01 1.5867 50.971 5.7134 73.92 12.221 2.376 0.67375 6.264 1.7536 8.64 2.3996 8.0623 2.1921 23.623 7.5724 33.28 11.507 23.797 9.6953 48.876 23.479 69.236 38.052 10.735 7.6839 18.139 13.724 28.524 23.268 12.491 11.48 22.928 23.788 27.921 32.926 2.3564 4.3122 4.3594 10.172 5.086 14.88 0.69936 4.5311 0.43648 14.449-0.49968 18.852-2.8108 13.221-10.622 30.833-19.172 43.228-10.386 15.055-21.965 28.811-36.52 43.385-13.789 13.807-25.113 23.079-39.855 32.632-7.9529 5.1537-12.838 7.93-21.6 12.276-11.425 5.6669-19.948 9.2953-34.08 14.508-6.5719 2.424-20.955 6.7087-25.949 7.7305-6.9742 1.4268-10.518 1.7248-18.363 1.5446-8.0865-0.18583-12.11-0.80099-18.408-2.8147-14.083-4.5029-34.56-18.221-45.828-30.702-10.952-12.131-20.626-30.939-27.646-53.747-4.279-13.903-5.3231-20.761-5.629-36.973-0.21648-11.476 0.29514-24.625 1.0645-27.36 1.6012-5.6918 5.9476-10.008 11.77-11.689 1.4618-0.42201 2.7466-0.51552 5.6578-0.41171 3.6868 0.13143 3.8262 0.16387 6.5887 1.5324 3.6728 1.8196 5.9219 4.0385 7.6999 7.5965 0.82364 1.6483 1.4 3.3185 1.546 4.48 0.128 1.0186 0.0446 6.4634-0.18531 12.1-0.55575 13.623-3e-3 23.371 1.7784 31.352 0.72304 3.2399 4.0943 14.211 5.571 18.13 5.4814 14.546 10.813 24.386 16.945 31.278 7.6452 8.5914 23.55 19.441 32.157 21.935 8.0081 2.3206 13.865 1.759 28.49-2.7324 4.0591-1.2465 8.2443-2.6048 9.3003-3.0184 1.056-0.41357 3.864-1.4702 6.24-2.3481 24.037-8.8812 42.507-18.989 59.04-32.311 7.3347-5.91 10.389-8.6827 18.743-17.013 18.422-18.369 32.984-36.72 39.851-50.218 2.6998-5.3076 6.4771-15.994 7.361-20.825 0.49193-2.6889 0.48605-2.8946-0.15504-5.4298-0.51114-2.0212-1.0751-3.2422-2.4207-5.241-8.0216-11.916-26.473-29.413-45.139-42.805-8.1018-5.8128-14.762-10.047-27.36-17.395-7.4084-4.3211-21.079-11.015-31.412-15.382-23.222-9.8131-53.129-18.164-79.481-22.192-28.281-4.3237-56.16-4.8684-90.067-1.7599-30.245 2.7727-55.573 8.0036-83.04 17.15-10.91 3.6329-13.964 4.766-24.64 9.1414-43.097 17.663-66.643 32.796-98.263 63.153-10.421 10.004-14.25 14.224-26.967 29.71-2.3964 2.9185-11.604 15.127-15.457 20.496-5.9683 8.3154-15.246 22.162-23.69 35.359-2.6337 4.1158-9.8692 16.259-12.584 21.12-4.9256 8.8189-5.2389 10.262-3.3331 15.356 0.46541 1.2439 1.2808 2.5099 2.3438 3.639 5.6935 6.0478 24.864 19.234 44.03 30.285 14.594 8.415 37.498 19.286 50.72 24.074 18.085 6.5488 32.118 10.401 52.64 14.45 15.277 3.0143 26.163 4.5215 42.08 5.8257 2.288 0.18749 10.154 0.41908 17.48 0.51463 27.162 0.35433 43.194-1.103 73.096-6.6444 14.984-2.7768 39.181-8.1667 46.863-10.439 3.2916-0.97356 8.2692-1.317 10.968-0.75686 4.4321 0.9201 8.9404 4.2712 11.004 8.1792 1.7165 3.2509 2.1215 5.1971 1.9693 9.4649-0.13143 3.6868-0.16387 3.8262-1.5324 6.5887-2.7961 5.6439-6.458 8.0798-15.528 10.33-30.79 7.6372-58.754 13.027-80.48 15.513-11.451 1.3102-16.433 1.5196-38.24 1.6066-11.792 0.0471-22.376 0.0337-23.52-0.0298zm-159.35-295.83c-4.8132-0.83952-8.9272-2.5474-13.59-5.6415-5.5046-3.6528-9.6118-8.3983-12.315-14.229-2.1706-4.6814-2.4187-6.1674-2.4214-14.499-3e-3 -8.4176 0.28647-10.73 2.1407-17.12 1.3043-4.4952 3.6936-9.5517 6.5002-13.756 5.679-8.5079 18.787-20.805 28.731-26.954 21.49-13.287 60.413-33.077 76.386-38.838 4.8999-1.7671 13.606-3.8878 20.825-5.0728 9.5646-1.5699 32.593-1.4961 44.935 0.14405 9.9471 1.3219 20.956 4.7827 30.602 9.6204 8.8385 4.4327 27.721 18.245 30.908 22.608 2.1823 2.9881 3.0324 5.4503 3.2183 9.3212 0.19338 4.0265-0.22016 6.1307-1.8012 9.1656-2.0617 3.9574-6.1174 7.2146-10.404 8.3561-2.1125 0.56249-7.2517 0.56249-9.3642 0-2.3812-0.63403-5.0406-2.1479-7.9579-4.53-9.1969-7.5097-18.231-13.604-23.214-15.658-11.383-4.6944-19.622-6.0696-36.306-6.0604-7.6726 4e-3 -9.6267 0.108-13.6 0.72234-13.332 2.0613-19.878 4.4972-43.2 16.074-14.607 7.2508-29.978 15.513-37.92 20.382-1.584 0.97111-3.672 2.2379-4.64 2.8151-5.1011 3.0416-15.455 12.709-18.927 17.671-1.091 1.5596-2.3772 5.093-2.674 7.3465-0.11034 0.83757-0.27274 1.9095-0.3609 2.382-0.27776 1.4891 0.7729 2.1802 3.3214 2.1846 8.8969 0.0157 16.4 7.7236 16.4 16.848 0 3.2166-0.50442 5.3085-1.9601 8.1289-1.9435 3.7657-4.4364 6.0393-8.6072 7.8503-1.973 0.85667-2.3344 0.90345-7.5127 0.97248-2.992 0.0399-6.2279-0.0649-7.1909-0.2329z" fill="#008cb5" stroke-width=".32"/>
</svg>
