<?xml version="1.0" encoding="UTF-8"?>
<svg version="1.1" viewBox="0 0 960 960" xmlns="http://www.w3.org/2000/svg">
<path d="m320 920.77c-14.323-0.93421-19.107-1.3873-26.88-2.5458-11.17-1.6648-18.845-3.2905-29.6-6.27-13.589-3.7643-23.394-7.3581-37.549-13.762-32.38-14.65-56.535-31.645-77.475-54.511-9.5365-10.413-16.891-19.91-25.897-33.44-4.7054-7.0689-5.7564-8.7574-10.457-16.8-4.4843-7.6726-10.264-19.816-14.699-30.88-5.442-13.579-11.413-33-14.068-45.76-4.0179-19.307-5.6334-30.592-6.9624-48.64-0.55519-7.5392-0.54994-34.639 8e-3 -41.28 1.1579-13.781 2.6561-23.525 5.8274-37.9 1.7891-8.1098 6.4986-23.07 10.387-32.998 5.0713-12.946 12.336-28.066 19.44-40.462 14.967-26.115 29.587-43.875 51.924-63.077 5.9546-5.1189 18.792-14.969 26.226-20.123 1.904-1.32 4.5431-3.1649 5.8647-4.0997 5.8325-4.1257 16.652-10.654 24.389-14.717 18.012-9.458 39.908-16.929 67.33-22.973 27.065-5.9652 54.953-7.6823 82.43-5.0751 12.517 1.1876 19.251 2.4148 30.865 5.6245 11.25 3.109 20.991 6.5202 34.644 12.132 3.4353 1.412 6.4928 2.489 6.7945 2.3932 0.30167-0.0957 2.5449-2.2241 4.985-4.7297 2.44-2.5056 14.964-15.14 27.83-28.076 12.866-12.936 43.473-43.752 68.014-68.48 79.509-80.114 75.105-75.729 77.908-77.585 4.2048-2.7843 5.6079-3.1964 10.88-3.1953 7.7394 2e-3 8.78 0.63726 21.76 13.291 5.104 4.9759 14.752 14.381 21.44 20.901 71.755 69.948 95.275 93.181 97.101 95.915 2.1299 3.1895 2.742 5.5174 2.7221 10.353-0.015 3.6472-0.12474 4.484-0.89034 6.7886-1.7197 5.1765 0.23024 3.0103-42.278 46.969-38.756 40.079-36.168 37.509-39.445 39.163-4.5949 2.3198-12.078 2.1574-16.86-0.36601-2.5411-1.3408-6.4442-5.2439-7.785-7.785-2.6908-5.0995-2.6895-12.458 3e-3 -17.537 1.098-2.0712 1.7644-2.7987 17.032-18.594 5.1041-5.2806 15.252-15.793 22.552-23.36 7.2995-7.5674 15.543-16.077 18.32-18.91 2.7765-2.8329 5.0482-5.3505 5.0482-5.5948 0-0.24422-2.196-2.6116-4.88-5.2609-10.596-10.459-61.779-60.472-83.414-81.509-6.3451-6.1695-10.018-9.5169-10.445-9.52-0.42227-3e-3 -1.91 1.2864-4.1481 3.5952-1.9193 1.98-13.293 13.464-25.274 25.52-11.981 12.056-42.58 42.872-67.998 68.48-73.102 73.65-76.962 77.482-79.232 78.656-2.6667 1.3788-5.4578 1.9747-9.2502 1.9747-4.239 0-6.414-0.55987-11.636-2.9953-19.686-9.1816-41.769-16.976-54.444-19.215-15.453-2.7304-34.681-3.6414-50.647-2.3995-22.111 1.7201-47.29 7.1846-69.501 15.084-12.586 4.4759-25.256 10.72-37.307 18.386-8.3648 5.321-20.743 14.283-29.588 21.423-18.346 14.809-30.29 28.013-42.084 46.528-8.925 14.01-19.129 34.474-24.891 49.92-9.7504 26.135-14.122 54.094-12.915 82.597 1.5692 37.056 8.9397 70.083 22.451 100.6 3.0002 6.777 9.7861 19.851 12.54 24.16 0.28118 0.44 1.8969 2.9885 3.5904 5.6634 5.2389 8.2746 13.424 19.431 19.266 26.259 13.051 15.254 25.09 25.675 41.517 35.934 14.296 8.9285 33.781 18.246 49.71 23.77 4.4705 1.5503 17.934 5.3776 20.899 5.9406 0.968 0.18387 3.4961 0.69392 5.6181 1.1335 12.677 2.626 31.272 4.3397 47.022 4.3335 23.98-0.01 63.969-4.0349 82.829-8.3379 2.3162-0.52841 4.8972-1.0959 5.7357-1.261 3.0205-0.59481 11.776-3.2066 17.547-5.2346 8.1116-2.8503 12.672-4.8126 21.249-9.1437 19.683-9.9396 36.338-21.897 49.682-35.669 12.193-12.584 22.888-27.793 36.698-52.188 2.5679-4.536 8.7192-16.924 10.566-21.28 6.9335-16.349 11.005-32.836 14.383-58.24 3.4775-26.152 1.6092-59.583-5.0967-91.2-1.7966-8.4705-7.0802-21.669-14.741-36.824-4.3045-8.5152-4.6484-9.5013-4.8476-13.902-0.27878-6.1586 1.0552-9.6332 5.3456-13.924 4.2904-4.2904 7.765-5.6244 13.924-5.3456 4.0439 0.18307 6.3629 0.86908 9.1261 2.6997 4.2506 2.8161 6.4576 6.0562 12.204 17.918 8.214 16.955 13.308 30.496 15.627 41.538 3.2545 15.498 5.5052 31.676 6.7888 48.8 0.57181 7.6276 0.57283 37.561 0 43.68-2.4218 25.937-7.1444 49.343-13.754 68.166-3.2003 9.114-7.9791 19.847-13.177 29.594-10.597 19.873-23.884 40.474-34.331 53.229-8.388 10.241-19.418 21.333-28.72 28.883-6.8931 5.5942-21.979 16.203-25.854 18.181-0.57948 0.29581-2.0195 1.161-3.2 1.9225-3.5269 2.2752-11.369 6.5202-17.506 9.4766-29.717 14.314-60.546 21.049-113.6 24.816-6.5309 0.46374-37.964 0.89133-42.72 0.58115zm15.581-90.209c-2.8027-0.77046-4.8812-2.0434-8.2426-5.048-8.3187-7.4356-12.483-14.464-15.038-25.384-0.93793-4.0076-1.055-5.0648-1.1839-10.688-0.17052-7.4385 0.16128-9.7903 2.3476-16.64 3.1952-10.01 8.9283-18.999 16.797-26.335 7.9813-7.4414 16.562-11.643 27.979-13.702 3.1959-0.57629 5.1014-0.69546 11.36-0.71028 7.0293-0.0166 7.7499 0.0367 11.044 0.81815 8.9624 2.126 16.19 6.3162 22.882 13.266 8.0769 8.3883 13.953 19.376 15.516 29.012 0.55418 3.417 0.6225 10.1 0.14291 13.98-0.83504 6.756-3.1846 14.823-5.7764 19.832-2.5488 4.926-8.2083 11.396-14.526 16.605-5.0733 4.1834-8.2165 5.3589-13.561 5.0716-2.0772-0.11164-3.7281-0.40441-5.063-0.89785-4.2707-1.5786-8.4276-5.7372-9.9935-9.9976-0.44912-1.222-0.79414-3.0492-0.90064-4.7699-0.39414-6.3675 1.6891-10.929 6.8837-15.074 2.8956-2.3103 6.0542-5.5444 6.7841-6.9464 0.79866-1.5338 1.4932-4.0486 2.0973-7.5938 0.46106-2.7056 0.46058-3.1367-5e-3 -4.9548-0.90201-3.5209-4.2548-8.949-7.0359-11.391-2.8228-2.4784-6.2662-3.3758-11.033-2.8753-7.7219 0.81082-12.474 3.3022-16.49 8.6445-1.9396 2.5802-4.5231 7.8764-5.1915 10.642-0.50105 2.0736-0.5016 2.4301-8e-3 5.3231 0.82608 4.8409 1.5996 6.2426 5.6206 10.185 4.7604 4.6669 6.1256 7.5976 6.1256 13.15 0 5.0019-1.4484 8.5269-4.9369 12.015-3.5406 3.5406-7.0496 4.9562-12.175 4.9121-1.584-0.0138-3.5724-0.21516-4.4188-0.44784zm-150.52-64.452c-2.9198-0.83536-5.2793-2.3981-8.4926-5.6245-5.9194-5.9438-8.8813-10.872-11.348-18.883-1.758-5.7095-2.1169-8.4707-1.9132-14.72 0.51443-15.782 6.4117-28.534 16.968-36.693 5.096-3.9384 10.33-6.322 17.167-7.8184 3.6819-0.80579 4.5852-0.87751 11.36-0.90208 6.65-0.024 7.6841 0.0466 10.72 0.73357 8.6232 1.9511 15.981 6.1213 22.926 12.994 7.5268 7.4489 12.129 16.288 14.082 27.045 0.41393 2.2803 0.55374 4.8393 0.55943 10.24 7e-3 6.8778-0.0318 7.343-0.87196 10.394-1.5504 5.6309-4.1086 9.8184-9.0104 14.749-4.4826 4.5089-7.5206 5.8889-12.965 5.8889-5.0019 0-8.5269-1.4484-12.015-4.9369-3.4878-3.4878-4.9337-7.0062-4.9407-12.022-7e-3 -4.7172 1.223-7.9378 4.4234-11.586 1.6064-1.8312 1.6078-1.8348 1.4443-3.68-0.43743-4.935-1.889-8.7115-4.4383-11.547-1.6793-1.8678-5.1179-3.7748-7.6509-4.243-3.9244-0.72548-9.6931 0.84403-11.02 2.9984-1.0714 1.7388-1.9421 4.2905-2.4417 7.1555-0.4298 2.4646-0.42724 2.9407 0.0253 4.687 0.74304 2.8675 1.5697 4.2703 4.1096 6.974 3.7046 3.9435 5.305 7.6811 5.305 12.389 0 7.78-5.2142 14.591-12.653 16.529-2.4897 0.64848-6.8327 0.59142-9.3282-0.1225zm316.22-7.0583c-6.3572-1.6044-14.82-4.2207-19.305-5.9685-4.6471-1.8108-12.438-5.7112-16.357-8.189-1.6818-1.0634-3.7778-2.3771-4.6578-2.9194-2.1711-1.338-7.0033-4.8072-8.96-6.4326-0.88-0.73104-2.896-2.3188-4.48-3.5285-4.7318-3.6135-10.915-9.1116-15.729-13.986-9.9908-10.116-13.208-14.524-32.897-45.066-2.7798-4.312-5.8101-8.992-6.734-10.4-0.92397-1.408-2.6825-4.144-3.908-6.08-1.9478-3.0772-4.4054-6.9311-11.53-18.08-0.95597-1.496-3.3827-5.312-5.3928-8.48s-4.3509-6.84-5.2018-8.16-3.3148-5.208-5.4755-8.64-4.5695-7.248-5.353-8.48c-3.2433-5.0994-9.3951-14.834-15.322-24.246-1.7476-2.7751-4.5593-7.2391-6.2484-9.92-3.9237-6.2279-7.58-12.07-12.813-20.474-2.451-3.9363-4.6142-7.7216-8.2746-14.48-4.9116-9.0684-5.5774-10.171-9.0304-14.955-3.528-4.8882-7.1992-8.9638-9.8151-10.896-3.1346-2.3156-9.807-5.248-17.293-7.5999-5.5234-1.7352-7.1552-2.6101-9.7981-5.253-3.4886-3.4886-4.9369-7.0136-4.9369-12.015s1.4484-8.5269 4.9369-12.015c4.9778-4.9778 10.716-6.142 18.758-3.8052 6.6968 1.9461 14.548 4.9892 19.836 7.6881 10.261 5.237 17.796 12.276 27.267 25.472 3.8504 5.3646 5.4521 8.0173 10.415 17.249 3.3921 6.3096 7.0623 12.665 9.432 16.333 0.61056 0.94509 2.0476 3.2304 3.1934 5.0784 1.1459 1.848 3.6337 5.808 5.5285 8.8 1.8948 2.992 4.1909 6.664 5.1023 8.16 0.91143 1.496 2.85 4.592 4.3079 6.88 6.7249 10.554 12.282 19.339 13.259 20.96 0.47712 0.792 2.298 3.672 4.0465 6.4s3.8555 6.04 4.6823 7.36c1.833 2.9266 7.6116 12.019 9.8641 15.52 0.90579 1.408 2.3751 3.712 3.2652 5.12 3.7268 5.8954 9.8626 15.506 11.134 17.44 0.75223 1.144 2.3728 3.664 3.6012 5.6 13.311 20.978 25.405 39.165 29.12 43.79 6.0482 7.5298 18.541 18.57 29.144 25.757 4.1417 2.8071 12.044 7.0514 16.134 8.6656 3.0775 1.2147 11.786 3.8778 16.21 4.9575 4.753 1.1598 7.02 2.3195 9.7958 5.0111 2.6317 2.5518 4.0672 4.9533 4.7875 8.009 1.3947 5.9166-0.0904 11.327-4.3358 15.796-5.1035 5.3726-10.398 6.439-19.971 4.023zm304.56-485.94c-5.2568-1.4157-9.7696-5.5646-11.646-10.707-0.63398-1.7376-0.75891-2.6858-0.75891-5.76 0-4.7511 0.53245-6.4775 3.2204-10.442 1.1424-1.685 2.2892-3.4737 2.5484-3.9749 0.97338-1.8823 0.28963-7.0885-1.4072-10.714-1.3862-2.9622-2.7671-4.2969-6.0693-5.8662-3.1825-1.5124-5.6539-1.9554-7.5033-1.3451-2.5306 0.83518-7.4597 4.6258-8.4135 6.4703-0.94528 1.828-0.29532 5.9638 1.2988 8.2641 0.49059 0.7079 1.8137 2.3314 2.9402 3.6077 3.3198 3.7613 4.578 6.9934 4.578 11.761 0 5.0019-1.4484 8.5269-4.9369 12.015-3.4886 3.4886-7.0136 4.9369-12.015 4.9369-4.753 0-8.1615-1.3191-11.636-4.5032-3.99-3.6561-9.3874-11.065-11.363-15.598-3.0933-7.097-4.3828-19.755-2.7428-26.925 1.3665-5.9739 2.9394-9.4484 6.3171-13.954 3.9369-5.2519 9.05-9.863 15.585-14.055 7.2697-4.6634 16.088-6.9306 24.96-6.4175 8.8603 0.51248 18.886 4.2046 26.08 9.6041 9.6042 7.2087 16.321 18.845 18.249 31.615 0.64183 4.2504 0.629 14.4-0.0218 17.202-1.3648 5.8761-3.269 10.119-6.8938 15.36-3.9484 5.709-7.0787 8.2349-11.696 9.4375-2.2879 0.59592-6.4398 0.59075-8.6734-0.0108zm-9.4634-150.71c-3.4968-0.96131-5.0142-2.0106-9.6726-6.6891-6.5637-6.592-11.149-12.988-13.295-18.545-0.55335-1.433-1.382-4.2615-1.8414-6.2855-0.79578-3.5055-0.83562-4.1199-0.84064-12.96-5e-3 -9.0834 0.0138-9.3614 0.90173-13.12 1.6238-6.8744 3.7734-11.643 7.5729-16.8 7.8077-10.597 19.747-18.362 32.634-21.225 5.9611-1.3241 8.8913-1.5941 15.36-1.4151 4.9864 0.13793 6.6968 0.32445 10.846 1.1828 12.778 2.6434 23.238 7.7663 30.153 14.768 7.1408 7.2303 10.997 15.216 12.923 26.762 0.85552 5.1276 0.56295 14.336-0.61788 19.447-1.4358 6.2156-4.259 12.737-7.5023 17.331-2.3307 3.3009-6.5271 7.5867-10.847 11.078-6.6952 5.4111-9.1218 6.6024-13.995 6.8712-5.2018 0.28692-9.1036-1.2051-12.789-4.8906-3.5206-3.5206-4.9603-6.9991-4.9672-12.002-9e-3 -6.2909 2.276-10.425 8.2985-15.016 4.6466-3.5423 5.7973-4.7676 7.1138-7.5752 1.7133-3.6538 2.123-6.5137 1.4546-10.154-0.59725-3.2527-1.7767-6.0141-3.2081-7.5111-1.1512-1.2039-4.6815-3.0797-8.1228-4.3161-5.1751-1.8592-11.568-2.4003-15.94-1.3492-1.232 0.29617-3.536 1.1549-5.12 1.9082-6.3757 3.0323-9.2325 6.432-10.106 12.027-0.4408 2.8232-0.21334 8.2559 0.42298 10.103 0.62598 1.817 2.7287 4.5495 6.6703 8.6683 4.7333 4.9461 6.0452 7.817 6.0452 13.229 0 5.0019-1.4484 8.5269-4.9369 12.015-3.5406 3.5406-7.0496 4.9563-12.175 4.9121-1.584-0.0136-3.5724-0.21518-4.4188-0.44784z" fill="#d60033" stroke-width=".32"/>
</svg>
