<?xml version="1.0" encoding="UTF-8"?>
<svg version="1.1" viewBox="0 0 960 960" xmlns="http://www.w3.org/2000/svg">
<path d="m581.76 909.86c-1.9815-0.33258-10.968-2.8967-16.8-4.7938-7.6816-2.4985-12.998-3.9541-23.84-6.527-7.9202-1.8795-9.716-2.2962-21.92-5.0856-3.168-0.7241-7.272-1.6799-9.12-2.124s-4.872-1.1674-6.72-1.6074c-15.63-3.7209-31.879-7.815-36.64-9.2321-1.408-0.41904-4-1.1232-5.76-1.5647-7.7521-1.9447-22.224-6.6612-29.28-9.5425-7.7724-3.1738-20.236-11.051-29.015-18.338-4.1826-3.4718-11.199-10.488-14.05-14.049-12.858-16.062-19.6-30.287-22.683-47.865-1.1481-6.5454-3.2937-25.349-3.7255-32.65-0.42477-7.1819-0.20976-33.465 0.37955-46.4 0.41203-9.0436 0.52295-29.351 0.31808-58.24-0.13392-18.885-0.12937-19.057 0.56295-21.168 1.2905-3.9343 4.4388-7.7146 8.0715-9.6917 3.5906-1.9542 10.275-2.7086 14.082-1.5895 2.3409 0.68803 5.4773 2.3668 7.8662 4.2103 1.0825 0.83536 5.7637 4.9028 10.403 9.0388 13.261 11.823 20.652 18.038 24.859 20.906 3.1388 2.1394 5.646 2.402 8.8013 0.92164 1.5616-0.73261 2.8108-1.779 6.0358-5.0557 5.3859-5.4723 5.6-5.7654 17.512-23.972 3.109-4.752 7.1625-10.728 9.0076-13.28 1.8452-2.552 4.485-6.368 5.8663-8.48 5.4093-8.271 8.6081-11.909 12.931-14.705 3.9269-2.5403 5.9215-3.1383 11.021-3.3044 4.1069-0.13373 4.5928-0.0849 7.2 0.72304 1.5377 0.47654 3.6539 1.3209 4.7027 1.8764 2.3008 1.2187 6.2825 5.0498 8.1689 7.86 1.8996 2.83 4.7006 8.8452 6.8682 14.75 1.0014 2.728 2.4371 6.544 3.1904 8.48 2.8896 7.4266 3.391 8.8829 5.8946 17.12 5.1767 17.032 8.3509 30.885 10.76 46.958 0.70464 4.7013 0.64829 9.7467-0.13721 12.288-1.1368 3.6783-3.4845 6.7407-6.8684 8.9594-2.8531 1.8706-5.3162 2.5156-9.5768 2.5075-3.9444-7e-3 -6.4115-0.65008-9.1663-2.3876-2.198-1.3864-4.8995-4.3762-6.0311-6.6748-1.1081-2.2508-1.1909-2.6152-2.6298-11.571-2.2658-14.102-4.8568-25.243-9.2281-39.68-2.7035-8.9285-4.47-13.6-5.143-13.6-0.34419 0-2.3477 2.7599-5.6312 7.7572-14.55 22.144-16.071 24.259-22.096 30.716-9.5611 10.247-17.205 15.091-26.954 17.08-3.0757 0.62732-4.678 0.75884-9.1672 0.75241-3.1421-4e-3 -6.4538-0.19075-7.84-0.44093-2.8142-0.5079-10.091-2.8248-12.16-3.8717-1.9772-1.0004-7.8561-5.15-11.484-8.1056-4.8982-3.991-4.5404-3.765-4.99-3.1501-0.28762 0.39331-0.44339 5.0191-0.59731 17.737-0.11453 9.463-0.34432 20.301-0.51066 24.085-0.58902 13.399-0.75325 29.366-0.36531 35.519 0.6777 10.749 3.0122 28.893 4.6524 36.159 2.6541 11.758 11.851 26.323 22.387 35.455 8.8738 7.6911 17.997 13.262 27.241 16.632 3.9961 1.4571 17.001 5.4332 22.356 6.8348 1.9531 0.51127 5.423 1.422 7.711 2.0239 5.5406 1.4575 18.187 4.6405 23.36 5.8797 7.0362 1.6854 13.216 3.1494 18.4 4.3588 2.728 0.63645 11.728 2.7358 20 4.6653 15.689 3.6596 19.428 4.647 28.524 7.533 3.016 0.95696 5.7102 1.7399 5.9871 1.7399 0.31111 0 0.62704-0.45862 0.82669-1.2 0.1777-0.66 0.53606-1.992 0.79635-2.96 0.58269-2.1669 2.7953-12.407 3.6646-16.96 2.9867-15.643 4.8006-36.5 4.1745-48-0.54867-10.076-1.9768-20.448-3.8554-28-1.9136-7.6925-4.6092-11.658-12.998-19.12-6.2042-5.5194-7.7597-8.5181-7.7597-14.96 0-6.542 2.354-11.074 7.5067-14.452 3.0839-2.0219 5.5555-2.6121 10.195-2.4348 6.0643 0.23171 7.8264 1.1483 15.115 7.8626 4.6589 4.2916 9.4137 9.4891 12.208 13.344 4.3847 6.0502 8.3848 16.325 10.465 26.88 5.7472 29.167 3.8889 66.943-5.1011 103.7-3.0957 12.657-6.0654 21.724-8.1607 24.917-2.6492 4.0364-6.0546 6.687-10.324 8.0361-2.173 0.68659-3.0438 0.78317-6.72 0.74522-2.3229-0.024-4.5835-0.104-5.0235-0.17786zm63.04-187.39c-5.6173-1.9221-9.4112-5.889-11.045-11.548-0.40957-1.4188-0.51133-2.7461-0.41712-5.44 0.11955-3.4174 0.21421-3.8254 2.312-9.9633 1.2031-3.52 2.8138-7.9446 3.5795-9.8325 5.0491-12.45 14.157-28.017 22.475-38.416 16.381-20.478 33.008-35.699 54.615-49.999 13.117-8.6812 33.618-19.083 49.6-25.166 9.6699-3.6807 23.281-8.3162 35.628-12.134 7.7272-2.3892 9.6519-3.1449 9.6519-3.7898 0-0.15526-0.49853-2.9239-1.1078-6.1526-3.597-19.06-4.8585-28.833-7.0781-54.83-0.67987-7.9636-0.98599-33.426-0.48615-40.442 1.4509-20.366 6.2878-43.509 13.217-63.238 7.2531-20.652 13.106-32.459 24.584-49.6 7.2212-10.783 13.885-19.161 20.871-26.24 3.3-3.344 6-6.1868 6-6.3174s-0.91856-2.5066-2.0412-5.28c-2.6815-6.6244-6.8333-19.82-9.3897-29.843-4.8087-18.854-7.0023-31.091-8.1452-45.44-0.51706-6.4912-0.51546-31.729 3e-3 -38.88 2.1168-29.231 6.2213-48.413 14.512-67.823 3.0307-7.0951 11.362-23.718 15.447-30.819 2.0509-3.5653 3.6369-6.6312 3.5245-6.813-0.26953-0.4361-0.34259-0.41117-9.4305 3.218-28.523 11.391-56.313 24.859-74.653 36.181-4.9565 3.0598-14.372 9.3727-17.507 11.738-36.466 27.517-61.961 53.162-87.208 87.721-3.5674 4.8834-13.473 19.527-16.058 23.739-0.69466 1.1319-2.4854 4.002-3.9795 6.378-15.683 24.941-27.928 48.605-35.85 69.28-3.6494 9.5249-8.8658 25.675-11.146 34.509-0.50698 1.9639-1.3715 5.2988-1.9212 7.4108-1.0302 3.958-4.2965 17.766-4.8067 20.32-0.15821 0.792-0.78563 3.744-1.3943 6.56-4.6045 21.303-6.7429 44.818-7.5777 83.329-0.3583 16.53-0.10883 42.363 0.65853 68.191 0.61927 20.843 0.7384 33.657 0.34659 37.28-0.98009 9.0633-3.8346 20.568-7.8999 31.84-2.3171 6.4247-9.7386 20.118-12.8 23.618-1.8736 2.1418-4.641 3.9476-7.4178 4.8405-1.9842 0.63798-2.7533 0.71171-6.2056 0.59462-3.3646-0.11411-4.2453-0.25984-6.0245-0.99702-4.0326-1.6708-7.4601-5.1085-9.183-9.2103-0.7401-1.7621-0.87696-2.6011-0.98634-6.0468-0.16204-5.1041 0.27517-6.5007 3.9922-12.753 5.4544-9.174 8.0492-15.665 10.444-26.127 2.4515-10.709 2.5196-11.508 2.151-25.209-0.17626-6.5508-0.49127-18.247-0.7-25.991-0.49924-18.521-0.50138-66.298-4e-3 -79.04 1.5256-39.045 3.758-56.625 11.244-88.544 3.7077-15.81 8.9047-34.362 12.353-44.096 0.46758-1.32 1.3271-3.768 1.91-5.44 4.6307-13.282 11.636-29.43 18.603-42.88 5.3926-10.411 14.101-25.793 19.294-34.08 0.66169-1.056 2.1413-3.432 3.288-5.28 2.099-3.3828 6.2523-9.9287 8.2705-13.035 1.1016-1.6955 3.0438-4.5393 9.2374-13.525 15.093-21.898 33.87-43.978 53.609-63.04 7.3926-7.1391 10.53-9.9699 21.602-19.489 0.968-0.8323 4.0526-3.3623 6.8547-5.6222 4.6584-3.757 7.3785-5.8758 16.665-12.981 6.2395-4.7739 19.388-13.305 28.96-18.789 22.258-12.753 52.916-26.813 83.52-38.304 3.08-1.1564 6.32-2.3817 7.2-2.7228s3.616-1.3691 6.08-2.2843c2.464-0.91522 5.992-2.2311 7.84-2.9242 3.3423-1.2535 9.4999-3.4034 14.08-4.916 8.1529-2.6925 15.826-3.6661 20.16-2.5581 3.5617 0.9105 5.9418 2.2257 8.3057 4.5896 3.6454 3.6454 5.137 7.5166 5.13 13.314-7e-3 5.9435-1.5694 9.3703-7.8001 17.109-1.3208 1.6405-2.7939 3.6565-3.2736 4.48-0.47971 0.82352-1.3982 2.2173-2.0412 3.0973-3.0846 4.2218-14.025 21.424-19.334 30.4-4.4627 7.5452-12.661 24.326-16.025 32.8-5.6186 14.155-9.3236 35.763-10.413 60.728-0.98019 22.464 1.9764 43.206 10.364 72.712 2.74 9.6384 3.7836 12.569 7.9961 22.453 1.3107 3.0754 2.8302 6.9873 3.3766 8.6932 0.89181 2.7841 0.99351 3.5088 0.99351 7.0812 0 3.348-0.12567 4.3759-0.79181 6.4762-1.4934 4.7086-2.4022 5.8671-12.501 15.937-6.6237 6.6044-10.276 10.526-12.668 13.6-17.414 22.381-28.355 44.92-35.107 72.32-4.8365 19.628-6.7749 33.913-6.7689 49.886 4e-3 9.5103 1.5161 30.348 3.208 44.194 1.6581 13.57 5.9471 37.161 7.7327 42.534 0.95843 2.8838 1.0203 3.3525 1.0379 7.8665 0.0173 4.4543-0.0461 4.9888-0.88141 7.4215-0.49507 1.4418-1.4434 3.4578-2.1073 4.48-1.5841 2.4388-5.1596 5.7637-7.5577 7.028-1.756 0.92582-7.051 2.7122-13.915 4.6944-8.0475 2.3241-28.976 9.1284-37.44 12.173-1.672 0.60137-3.832 1.3783-4.8 1.7264-8.7415 3.144-27.587 12.083-37.6 17.835-20.359 11.695-38.647 27.496-54.261 46.882-5.8122 7.2164-9.8023 13.624-15.154 24.336-3.4782 6.9619-4.0578 8.3807-7.1054 17.393-0.76794 2.2708-1.7425 4.7188-2.1658 5.44-2.0194 3.4408-5.7181 6.4173-9.3798 7.5482-3.0026 0.92743-8.1312 0.88759-10.974-0.0853zm-350.01-14.17c-5.7119-1.5375-10.28-5.9128-11.965-11.46-0.61224-2.0156-0.65425-2.6637-0.44683-6.8933 0.12592-2.5677 0.22615-4.9443 0.22273-5.2813-7e-3 -0.71616-2.4085-3.2584-4.6274-4.8991-3.6317-2.6854-11.202-4.9613-18.131-5.4507-2.0134-0.14224-5.2196-0.0866-8 0.13882-6.7317 0.54573-15.459 0.52963-17.617-0.0325-3.2454-0.84531-5.3976-1.8162-7.7238-3.4843-3.0226-2.1674-5.1232-4.8104-6.3955-8.047-0.89625-2.28-1.0273-3.0285-1.1529-6.5851-0.16603-4.7007 0.13437-6.1817 2.352-11.596 1.6848-4.1131 1.7054-4.9601 0.23546-9.6717-2.9978-9.6086-11.075-18.505-32.293-35.568-7.0448-5.6653-8.6602-6.9088-14.685-11.304-9.7605-7.1203-14.599-10.323-25.76-17.051-8.0781-4.8695-27.179-15.55-34.726-19.418-5.052-2.5889-6.9132-3.8835-9.0836-6.3187-1.9212-2.1555-3.2621-4.6198-4.1943-7.7083-0.74856-2.48-0.75503-3.3252-0.12819-16.726 0.33495-7.1604-0.7088-22.078-1.9917-28.467-0.97692-4.8648-2.4428-10.469-3.3897-12.96-3.3067-8.6977-4.9011-12.403-8.5489-19.867-7.2306-14.794-11.831-22.948-19.391-34.373-10.661-16.11-18.748-26.263-29.482-37.018-3.0228-3.0284-5.8573-6.1264-6.2991-6.8844-0.44174-0.75792-1.1726-2.4834-1.6241-3.8345-1.0795-3.2301-1.1622-8.3711-0.18564-11.533 2.0295-6.5707 7.6862-10.907 15.346-11.765 14.092-1.5775 51.831-2.4374 69.939-1.5935 6.7504 0.31459 20.845 1.5044 34.08 2.8769 22.664 2.3504 36.321 4.9486 53.12 10.106 14.808 4.5464 23.489 8.026 37.495 15.029 19.831 9.9156 38.605 22.328 55.305 36.565 5.908 5.0365 17.375 16.594 21.512 21.681 8.1973 10.081 14.15 19.621 18.658 29.904 1.3835 3.1556 1.8019 4.1781 3.7912 9.2654 2.6631 6.8106 7.4206 21.461 8.6769 26.72 3.2448 13.583 6.4873 34.807 9.4111 61.6 2.3338 21.386 2.4477 25.051 0.89402 28.766-1.7125 4.0947-5.1424 7.5366-9.1793 9.2115-1.792 0.74346-2.6442 0.88259-6.0846 0.99363-3.4721 0.11204-4.2755 0.0374-6.08-0.56505-3.8345-1.2802-6.7255-3.4571-8.8843-6.6899-1.919-2.8738-2.5278-5.3453-3.2799-13.316-2.1863-23.171-5.7305-49.614-8.5138-63.52-1.7267-8.6273-3.9416-16.428-7.2687-25.6-2.1731-5.9907-2.4067-6.6012-3.7192-9.7222-7.4504-17.716-19.198-32.051-39.533-48.241-20.059-15.97-47.374-30.879-69.6-37.989-17.754-5.6793-30.489-8.0737-57.12-10.74-22.713-2.2741-30.319-2.7364-45.139-2.7432-11.898-5e-3 -11.568-0.1234-9.047 3.2346 9.9666 13.275 18.993 27.431 26.91 42.201 11.46 21.382 18.309 38.982 21.005 53.979 1.3841 7.6998 2.2584 19.365 2.2664 30.24 3e-3 3.4645 0.13169 6.6325 0.28697 7.04 0.19632 0.51517 1.7804 1.5591 5.2 3.4269 17.212 9.4013 36.962 21.169 45.078 26.858 18.362 12.873 37.314 28.198 48.256 39.022 7.7499 7.6666 14.022 16.127 17.634 23.785 1.9971 4.2348 4.7046 12.915 5.168 16.568 0.66102 5.2117 0.91253 6.8364 1.085 7.0089 0.095 0.095 2.5859 0.35971 5.5353 0.58813 9.3808 0.72649 14.145 1.7012 21.682 4.4364 8.227 2.9853 13.627 6.3435 19.79 12.308 5.6096 5.4284 8.8125 10.25 10.83 16.304l1.3448 4.0346 0.12826 5.8644c0.25696 11.749-1.065 16.605-5.7154 20.992-3.413 3.2197-7.1816 4.682-11.965 4.6428-1.415-0.0115-3.3346-0.22614-4.2657-0.47676z" fill="#45256d" stroke-width=".32"/>
</svg>
