<?xml version="1.0" encoding="UTF-8"?>
<svg version="1.1" viewBox="0 0 960 960" xmlns="http://www.w3.org/2000/svg">
<path d="m589.31 937.43c-7.5445-2.0715-12.667-8.7331-12.667-16.473 0-4.5844 1.7401-8.7995 4.9631-12.022 2.6582-2.6582 5.47-3.9933 10.709-5.0851 8.6521-1.8029 11.632-3.1192 14.741-6.5123 2.226-2.4293 3.4573-4.8096 5.5764-10.78 2.2471-6.3309 3.2752-10.814 4.3303-18.88 0.52951-4.048 1.3296-10.168 1.778-13.6 3.7236-28.501 7.5367-47.566 13.216-66.08 2.6526-8.647 3.3375-10.554 6.3766-17.758 3.1915-7.5653 11.527-22.216 19.027-33.442 5.9064-8.8405 13.606-20.045 21.991-32 10.142-14.46 18.08-26.138 25.234-37.12 4.1411-6.3571 4.8156-7.4072 6.6799-10.4 16.218-26.035 26.546-45.916 35.491-68.32 4.0646-10.18 4.204-10.55 8.0775-21.44 1.9285-5.4221 7.3182-22.149 7.8879-24.48 0.27961-1.144 1.2829-4.672 2.2295-7.84 2.5154-8.4177 5.5717-20.061 13.44-51.2 1.8234-7.216 3.6746-14.488 4.1138-16.16s1.3038-4.984 1.9214-7.36 1.4844-5.472 1.9263-6.88 1.1678-4 1.6132-5.76c1.1779-4.6541 4.5212-14.979 8.1863-25.28 5.6697-15.936 22.682-48.639 39.036-75.04 3.2231-5.2032 4.256-6.8867 4.9082-8 0.62416-1.0655 5.982-9.525 9.7283-15.36 0.96048-1.496 3.5443-5.456 5.7418-8.8s5.7135-8.704 7.8135-11.911l3.8182-5.8312-0.34167-3.1288c-0.88809-8.1324-2.087-13.699-4.4663-20.738-1.3381-3.9587-1.9822-4.6912-4.8519-5.5185-6.2694-1.8074-10.911-2.6764-20.905-3.9135-27.55-3.4104-43.553-6.5041-60.48-11.693-8.3978-2.5741-14.712-4.9222-20.306-7.5513-20.591-9.6771-47.96-31.473-94.574-75.317-12.03-11.315-11.552-10.893-16.438-14.524-6.2432-4.6396-6.8567-4.8599-17.002-6.1051-3.08-0.37802-6.824-0.8873-8.32-1.1317-2.965-0.48447-7.2599-0.98901-19.04-2.2367-30.728-3.2545-55.663-6.7908-73.6-10.438-5.8871-1.1971-14.697-3.1658-16.96-3.7903-9.7528-2.6906-12.298-3.4455-15.826-4.6929-21.979-7.7726-47.856-24.863-78.702-51.979-7.6705-6.743-10.487-9.0222-13.601-11.008-4.2669-2.7201-5.9667-3.0647-12.275-2.4888-6.4518 0.58908-12.15 2.0086-20.716 5.1604-5.1987 1.9128-4.7982 1.5717-5.3778 4.5807-3.0401 15.784-4.0733 20.964-5.8268 29.215-2.3244 10.938-4.501 20.428-6.862 29.92-1.577 6.3398-2.235 8.8685-5.086 19.547-1.4709 5.5092-7.185 24.021-9.4245 30.533-10.2 29.658-23.372 53.917-43.871 80.8-13.433 17.616-20.571 27.327-25.284 34.4-14.216 21.334-21.807 36.577-32.334 64.925-0.59533 1.6031-1.6003 4.3086-2.2332 6.0122-1.6043 4.318-6.3965 18.042-7.5785 21.703-0.53979 1.672-1.5371 4.624-2.2162 6.56-2.322 6.6196-8.484 25.655-14.088 43.52-2.0979 6.688-4.4591 14.032-5.247 16.32-0.78793 2.288-2.5964 7.976-4.0188 12.64-1.4224 4.664-3.7155 11.936-5.0957 16.16-6.3393 19.401-12.618 38.35-13.625 41.12-0.60793 1.672-1.8307 5.056-2.7172 7.52s-1.8184 4.984-2.0708 5.6c-0.25234 0.616-1.2399 3.136-2.1945 5.6-5.645 14.57-16.532 34.812-31.199 58.006-4.4022 6.9616-16.686 25.455-19.923 29.994-1.5062 2.112-3.7252 5.28-4.9312 7.04-5.408 7.8923-9.6773 12.992-13.8 16.483l-1.3239 1.1212-0.27611 3.518c-0.38174 4.8638-0.27779 15.344 0.19041 19.198 0.74032 6.0937 3.5535 12.766 6.5366 15.504 0.84692 0.77725 7.9708 3.3984 11.877 4.37 1.056 0.26269 7.896 1.6839 15.2 3.1582 52.289 10.555 71.588 17.115 102.88 34.974 11.611 6.6264 27.412 17.162 38.216 25.48 12.54 9.6555 17.864 14.89 30.468 29.954 1.6934 2.024 3.9754 4.688 5.0713 5.92 3.4529 3.8819 5.6149 6.7062 9.2746 12.116 3.8936 5.7557 6.2536 8.2879 8.2054 8.804 4.9523 1.3094 19.378 2.2746 45.885 3.0698 32.954 0.98867 35.426 1.1735 51.52 3.8534 7.1468 1.19 13.947 2.5499 19.2 3.8395 4.5506 1.1173 14.611 4.1694 17.582 5.3338 5.6767 2.2252 12.79 5.3736 19.146 8.4737 6.2508 3.049 6.986 3.497 8.9866 5.4751 3.7412 3.6993 5.3884 7.97 5.0887 13.194-0.43315 7.5516-5.6857 13.765-13.117 15.518-4.6434 1.0948-7.0118 0.59673-14.806-3.1134-18.621-8.8636-26.447-11.383-45.92-14.78-15.51-2.7059-16.886-2.8045-56.16-4.0246-31.13-0.96704-44.205-2.4098-51.663-5.7011-4.4905-1.9816-9.0138-5.1692-12.993-9.1559-3.2627-3.2692-7.6399-8.9033-9.8379-12.663-0.95712-1.6371-3.2508-4.5176-7.4264-9.3265-1.584-1.8242-3.956-4.6121-5.2712-6.1952-8.4957-10.226-13.367-15.126-21.366-21.49-18.531-14.745-44.125-30.212-63.619-38.448-11.275-4.7637-25.63-8.9506-46.704-13.622-4.4-0.9753-13.688-2.9222-20.64-4.3264-16.348-3.302-15.985-3.2132-23.805-5.831-7.4048-2.4788-9.5939-3.478-13.833-6.3138-6.6318-4.4359-12.055-11.044-16.098-19.614-1.8393-3.8994-4.6225-12.819-5.3086-17.014-0.79656-4.8698-1.2062-13.903-0.99271-21.89 0.23962-8.965 0.63321-12.974 1.6894-17.208 1.9401-7.7775 4.5826-11.877 11.379-17.656 1.6724-1.4218 3.6604-3.5393 4.96-5.283 3.8323-5.1422 13.23-18.921 22.984-33.701 2.9577-4.4815 11.812-18.645 13.291-21.259 0.45426-0.80336 2.2715-3.9806 4.0383-7.0606 9.8473-17.166 14.128-26.324 20.269-43.36 2.3693-6.5728 3.6121-10.225 8.2207-24.16 6.7976-20.553 9.929-30.325 19.74-61.6 1.9876-6.336 4.5608-14.4 5.7183-17.92s3.7832-11.584 5.835-17.92c2.0518-6.336 3.954-12.096 4.2271-12.8 0.27311-0.704 1.1839-3.368 2.0239-5.92s2.3403-6.944 3.3339-9.76c0.9936-2.816 2.1543-6.1887 2.5794-7.4949 0.42508-1.3062 1.0614-3.1062 1.4141-4 0.35265-0.8938 2.0294-5.3691 3.7261-9.9451 8.3823-22.607 15.979-39.067 25.033-54.24 6.8314-11.448 16.692-25.963 24.13-35.52 0.61643-0.792 2.8402-3.744 4.9418-6.56s5.1917-6.92 6.8669-9.12c17.558-23.057 28.231-41.763 36.701-64.32 3.8321-10.206 9.2452-27.056 11.771-36.64 5.538-21.016 6.8811-26.555 10.514-43.36 1.8995-8.7858 3.3416-15.916 6.5373-32.32 2.6124-13.41 5.1761-18.861 10.707-22.765 2.956-2.0863 4.9347-3.0776 10.691-5.3558 8.3382-3.3001 9.7618-3.8093 15.608-5.5834 10.437-3.1673 17.563-4.1882 27.792-3.982 5.9199 0.11936 7.1693 0.23922 10.114 0.97025 3.7762 0.93738 6.7917 2.0182 9.6343 3.4531 3.515 1.7744 11.918 7.4941 15.326 10.432 1.848 1.5932 5.664 4.9003 8.48 7.349 15.126 13.154 26.045 21.727 37.28 29.272 11.182 7.5095 19.836 12.185 28.767 15.541 10.995 4.1319 31.725 8.5852 56.993 12.244 15.168 2.1961 22.145 3.0539 44.48 5.469 8.008 0.86589 17.008 1.9284 20 2.3612s7.312 1.0293 9.6 1.3256c4.7727 0.61815 9.9869 1.7082 12.977 2.7127 3.1619 1.0624 8.8649 3.8678 11.561 5.6872 4.2624 2.8763 11.321 8.2675 13.586 10.378 1.2078 1.1249 7.6682 7.1497 14.357 13.388 23.001 21.455 36.628 33.535 49.28 43.686 21.584 17.318 31.175 23.01 47.04 27.915 8.0372 2.485 9.6924 2.9374 15.464 4.2264 12.141 2.7114 22.124 4.3404 42.296 6.9013 10.827 1.3745 15.156 2.0686 16.8 2.694 0.40839 0.15526 2.0153 0.58331 3.5711 0.95122 10.471 2.4764 16.599 5.5394 22.042 11.018 2.8989 2.918 6.3354 7.9105 8.153 11.845 1.3713 2.9682 5.0794 14.759 6.0962 19.385 1.4263 6.4886 2.2664 13.416 2.4455 20.164 0.15987 6.0242 0.11734 6.7834-0.5175 9.2325-1.3484 5.2016-1.5912 5.6353-12.121 21.644-14.221 21.619-18.906 29.025-28.141 44.48-14.871 24.888-27.293 48.988-31.998 62.08-4.6186 12.851-6.928 20.302-10.662 34.4-2.3031 8.6948-3.1549 12.004-6.5486 25.44-3.4429 13.631-5.5759 21.999-7.8302 30.72-0.54592 2.112-1.3398 4.992-1.7641 6.4s-0.92698 3.28-1.1171 4.16c-0.81174 3.758-8.6624 29.709-11.907 39.36-11.06 32.896-23.375 59.485-41.871 90.4-2.5244 4.2194-7.0264 11.453-11.552 18.56-5.4977 8.6342-15.96 24.034-27.78 40.888-18.924 26.985-30.04 44.104-35.04 53.967-3.4577 6.8206-5.0738 11.038-8.1634 21.306-4.8034 15.962-8.2365 34.077-12.008 63.36-2.3956 18.6-3.4663 23.743-7.1775 34.473-2.4231 7.0062-4.1474 10.931-6.3391 14.429-5.1213 8.173-10.289 13.416-17.275 17.528-4.5571 2.6822-7.0422 3.749-12.586 5.4028-9.437 2.8154-15.473 3.6155-19.316 2.5604zm-36.195-100.34c-2.3802-0.32311-5.6633-1.3396-16.48-5.1027-4.664-1.6226-9.488-3.2797-10.72-3.6825-1.232-0.40275-4.976-1.6942-8.32-2.87-3.344-1.1757-6.584-2.2834-7.2-2.4616-4.1996-1.2145-8.8546-5.0785-10.956-9.0941-3.8352-7.3289-2.525-16.093 3.2728-21.89 3.8548-3.8548 8.5065-5.6236 14.083-5.3552 3.2679 0.15728 3.217 0.14227 18.24 5.3798 7.7357 2.6969 9.9693 3.351 10.608 3.106 0.25908-0.0994 1.1341-1.6717 1.9446-3.4941 0.8105-1.8223 3.4115-7.6333 5.7801-12.913 5.1853-11.559 15.109-33.717 20.708-46.24 2.2429-5.016 6.5627-14.664 9.5996-21.44 6.5936-14.712 12.157-27.138 18.555-41.44 2.598-5.808 7.2079-16.104 10.244-22.88 7.3073-16.307 13.092-29.235 17.111-38.24 3.3928-7.6025 17.381-38.839 22.569-50.4 1.6193-3.608 5.0036-11.168 7.5208-16.8 2.5172-5.632 6.4799-14.488 8.806-19.68 2.3261-5.192 6.6786-14.912 9.6722-21.6 2.9936-6.688 7.2823-16.264 9.5304-21.28 4.3614-9.7312 10.88-24.291 18.555-41.44 7.5923-16.966 12.66-28.283 18.557-41.44 3.0369-6.776 7.3569-16.424 9.6-21.44s6.5625-14.664 9.5986-21.44c3.0361-6.776 6.8705-15.338 8.5208-19.026 1.6503-3.6881 3.0006-6.9015 3.0006-7.1408 0-0.47142 0.10934-0.41856-14.72-7.1161-5.544-2.5039-11.592-5.2378-13.44-6.0754-1.848-0.83758-7.0683-3.1961-11.601-5.2411s-11.876-5.3587-16.32-7.3638c-4.4437-2.005-11.823-5.3332-16.399-7.3959-7.4293-3.3489-11.711-5.2811-29.44-13.286-2.64-1.192-8.544-3.8555-13.12-5.9188-13.077-5.8967-21.122-9.5284-29.76-13.436-4.4-1.9902-11.672-5.2751-16.16-7.2998-4.488-2.0246-13.488-6.0882-20-9.03-6.512-2.9419-14.864-6.7149-18.56-8.3846s-9.528-4.2965-12.96-5.8375c-3.432-1.541-8.544-3.8458-11.36-5.1218s-8.792-3.9758-13.28-5.9996-11.112-5.0143-14.72-6.6457-9.512-4.2956-13.12-5.9205-9.512-4.2872-13.12-5.9163c-3.608-1.6291-10.952-4.941-16.32-7.3599-5.368-2.4188-12.856-5.8019-16.64-7.5179-19.888-9.0193-22.762-10.286-23.088-10.178-0.37197 0.124-1.0171 1.4988-7.6252 16.251-2.2469 5.016-6.2804 14.016-8.9634 20-7.4779 16.678-12.648 28.217-17.207 38.4-3.8533 8.6078-6.9391 15.488-18.227 40.64-2.3696 5.28-6.4711 14.424-9.1144 20.32-2.6433 5.896-6.6462 14.824-8.8952 19.84-7.8595 17.529-12.512 27.91-16.599 37.04-2.2652 5.06-6.3159 14.096-9.0014 20.08-2.6855 5.984-6.7556 15.056-9.0446 20.16s-6.3899 14.248-9.1133 20.32c-12.416 27.683-20.135 44.903-25.676 57.28-2.2457 5.016-6.2811 14.016-8.9677 20-2.6866 5.984-6.7225 14.984-8.9687 20-2.2462 5.016-6.3464 14.16-9.1115 20.32-7.3425 16.358-18.324 40.85-25.718 57.36-5.6558 12.628-13.112 29.262-16.818 37.52-1.8316 4.0811-3.05 7.2006-2.9948 7.668 0.0835 0.70701 1.1291 1.2436 10.173 5.2212 5.544 2.4382 16.272 7.1762 23.84 10.529 7.568 3.3525 21.104 9.3306 30.08 13.285 8.976 3.954 26.184 11.555 38.24 16.89 12.056 5.3356 29.12 12.87 37.92 16.743 8.8 3.8733 20.608 9.0898 26.24 11.592 5.632 2.5025 19.312 8.5445 30.4 13.427 38.22 16.829 38.227 16.832 40.629 18.644 1.5327 1.156 2.736 2.4308 3.8521 4.0811 6.8278 10.096 2.6915 23.444-8.6411 27.885-3.0394 1.1911-7.5621 1.5878-10.442 0.91587-2.4275-0.5663-3.6966-1.1165-58.518-25.368-17.098-7.5639-34.631-15.304-75.68-33.413-10.56-4.6583-28.488-12.58-39.84-17.603-22.226-9.8354-24.953-11.04-43.2-19.079-42.134-18.563-39.991-17.528-43.51-21.018-4.529-4.4925-6.4281-11.015-4.9865-17.126 0.24991-1.0595 3.3593-8.4035 6.9097-16.32 12.296-27.417 16.085-35.869 19.506-43.514 1.8905-4.224 5.6359-12.576 8.3231-18.56 2.6872-5.984 6.4291-14.336 8.3155-18.56s4.3739-9.768 5.528-12.32c2.13-4.7101 16.045-35.738 22.316-49.76 3.1694-7.0868 6.0612-13.537 17.36-38.72 2.29-5.104 5.7076-12.736 7.5946-16.96s4.3751-9.768 5.5292-12.32c2.13-4.7101 16.045-35.738 22.316-49.76 1.889-4.224 5.6318-12.576 8.3173-18.56s6.4295-14.336 8.32-18.56c9.9751-22.287 13.229-29.544 14.521-32.387 0.78294-1.7229 4.2597-9.4686 7.726-17.213 3.4664-7.744 7.8545-17.536 9.7513-21.76s5.6417-12.576 8.3219-18.56 6.4242-14.336 8.32-18.56 5.6084-12.504 8.2503-18.4c19.621-43.789 22.182-49.498 27.919-62.24 4.3551-9.6737 4.7767-10.42 7.3332-12.984 3.7815-3.7924 7.94-5.7198 12.9-5.9788 5.1722-0.27006 5.451-0.16775 30.318 11.125 1.848 0.8392 7.104 3.2134 11.68 5.2761 14.582 6.5729 35.925 16.205 47.52 21.447 3.608 1.631 10.232 4.6237 14.72 6.6504s13.488 6.0919 20 9.0338c6.512 2.9419 14.864 6.7149 18.56 8.3846s9.528 4.2965 12.96 5.8375c3.432 1.541 8.544 3.8451 11.36 5.1202s8.72 3.9426 13.12 5.9276c11.012 4.9681 23.316 10.521 40.96 18.485 3.696 1.6683 11.112 5.0123 16.48 7.4312 5.368 2.4188 12.856 5.803 16.64 7.5204s10.408 4.7115 14.72 6.6536c4.312 1.9421 13.168 5.9381 19.68 8.8801 14.401 6.5059 22.739 10.27 33.362 15.059 4.445 2.0041 11.789 5.3167 16.32 7.3613 7.9106 3.5696 12.557 5.6638 27.598 12.44 9.4194 4.2432 11.659 5.3848 14.141 7.2071 6.0056 4.41 8.8304 11.947 7.1492 19.076-0.25325 1.0738-3.94 9.7138-8.1928 19.2-4.2528 9.4862-9.5356 21.28-11.74 26.208-4.7091 10.529-10.305 23.035-16.97 37.92-2.6398 5.896-7.2811 16.264-10.314 23.04-3.0329 6.776-7.3538 16.424-9.6019 21.44-4.4885 10.015-11.586 25.867-17.91 40-2.2443 5.016-6.5652 14.664-9.6021 21.44s-7.3569 16.424-9.6 21.44-6.5624 14.664-9.5984 21.44c-3.036 6.776-7.6455 17.072-10.243 22.88s-6.918 15.456-9.6004 21.44c-2.6823 5.984-6.6457 14.84-8.8075 19.68-4.5433 10.172-15.587 34.84-28.222 63.04-2.7206 6.072-7.0072 15.648-9.5256 21.28-5.6102 12.546-11.153 24.928-18.407 41.12-3.0358 6.776-7.3567 16.424-9.602 21.44-2.2454 5.016-6.2755 14.016-8.9557 20-2.6803 5.984-6.3828 14.264-8.228 18.4-6.8546 15.365-10.3 22.924-11.16 24.48-1.3194 2.3896-5.3206 6.1931-7.9701 7.5762-3.5981 1.8783-7.5992 2.6506-11.2 2.1617z" fill="#e2abae" stroke-width=".32"/>
</svg>
