<?xml version="1.0" encoding="UTF-8"?>
<svg version="1.1" viewBox="0 0 960 960" xmlns="http://www.w3.org/2000/svg">
<path d="m512.16 890.03c-13.908-0.54125-32.378-1.9101-42.72-3.166-5.815-0.70621-17.27-2.7484-23.09-4.1164-1.1165-0.26244-4.334-1.0054-7.15-1.651-8.0655-1.8492-37.941-10.051-47.68-13.09-2.464-0.76886-7.36-2.2867-10.88-3.3729-6.8042-2.0997-12.675-3.9609-17.12-5.4272-1.496-0.49353-6.824-2.2298-11.84-3.8582s-17.256-5.6579-27.2-8.9542c-21.556-7.1457-31.289-10.294-38.4-12.422-5.3959-1.6149-18.747-5.1722-19.404-5.1701-0.20035 0-4.8084-1.2114-10.24-2.6934-21.464-5.8564-31.956-8.0767-43.908-9.292-16.396-1.6674-31.907-0.53133-54.448 3.9878-3.432 0.68807-7.752 1.6055-9.6 2.0388-18.551 4.349-21.118 5.1163-33.68 10.066-9.4151 3.71-11.462 4.2819-15.946 4.4549-4.4474 0.17155-6.5411-0.2743-10.533-2.2431-4.6821-2.3091-8.2787-6.6844-10.506-12.78-0.81919-2.2422-0.8542-2.6003-0.8542-8.738 0-7.4744 0.23027-8.6959 2.9559-15.68 1.9035-4.8776 6.74-14.938 9.3836-19.52 2.637-4.57 7.2454-11.599 9.5457-14.56 6.3439-8.1655 18.828-18.784 35.381-30.094 2.6443-1.8068 3.5335-2.5866 3.5335-3.0988 0-0.779-5.4218-4.8331-13.224-9.8884-8.9604-5.8055-24.668-13.021-48.536-22.295-7.0705-2.7474-10.134-3.7663-13.12-4.3631-6.3656-1.2724-9.9683-3.0302-13.44-6.5576-3.6667-3.7259-5.2838-7.7996-5.2753-13.29 0.0127-8.1926 3.017-12.952 13.915-22.043 9.5369-7.956 20.685-15.046 29.839-18.978 4.5248-1.9436 15.589-5.6508 20.241-6.7819 10.109-2.458 14.665-3.3726 22.88-4.5923 5.6759-0.84275 25.323-0.83635 30.4 0.01 7.5007 1.2503 20.142 4.7769 25.947 7.2383 4.9487 2.0985 22.594 11.171 42.053 21.621 19.791 10.629 37.553 19.713 41.44 21.194 5.677 2.1638 13.737 2.7191 19.822 1.3658 7.8596-1.7481 13.203-4.5694 18.941-10 4.2354-4.0086 7.4306-8.9733 11.79-18.319 2.6771-5.7394 3.9236-7.7339 6.0454-9.6732 7.33-6.6992 18.494-6.4653 25.494 0.53421 3.5436 3.5436 5.442 8.0505 5.4638 12.972 0.0186 4.1661-0.86349 7.0409-4.5172 14.723-2.5841 5.4334-4.6776 9.081-8.9056 15.517-2.6216 3.9905-3.7457 5.3363-8.0306 9.6148-7.3729 7.3618-12.59 11.187-20.27 14.86-6.7631 3.235-13.929 5.5406-21.512 6.9214-3.6332 0.66156-5.1326 0.7568-11.84 0.75206-15.112-0.0106-22.343-2.028-40.869-11.402-3.4697-1.7556-7.8617-4.0212-9.76-5.0347-1.8983-1.0134-5.1794-2.7529-7.2914-3.8655-2.112-1.1126-5.856-3.0998-8.32-4.4159-21.057-11.248-27.288-14.559-29.92-15.899-1.672-0.85136-4.336-2.2177-5.92-3.0363-9.7768-5.0527-17.186-7.514-26.595-8.8348-11.049-1.551-30.072 1.1004-45.405 6.3281-5.9593 2.0319-6.56 2.3322-6.56 3.2801 0 0.44624 0.13428 0.81136 0.2984 0.81136 0.74269 0 18.934 7.9936 25.056 11.01 9.2315 4.5486 12.024 6.1611 20.369 11.761 12.737 8.5465 24.931 18.063 31.264 24.4 3.1283 3.13 3.7237 3.9086 5.0381 6.5894 1.7992 3.6695 2.4559 6.1109 2.4496 9.1072-0.0107 5.0966-2.617 11.155-6.2858 14.611-1.3632 1.2842-6.168 4.7558-11.31 8.1713-21.28 14.136-35.381 24.969-40.674 31.247-2.8409 3.3691-1.9078 3.826 4.3698 2.1393 1.9736-0.53027 4.8655-1.2428 6.4265-1.5834 1.561-0.34058 4.8-1.0538 7.1978-1.5849 17.273-3.826 32.172-5.7106 47.48-6.0061 14.086-0.27193 25.121 0.58672 37.92 2.9508 7.3645 1.3603 21.193 4.6999 33.234 8.026 4.1104 1.1355 8.4887 2.2781 9.7295 2.5391 4.112 0.86496 24.621 6.546 29.357 8.1319 1.496 0.50096 8.12 2.6702 14.72 4.8206 6.6 2.1504 18.84 6.1764 27.2 8.9468 13.405 4.4424 23.086 7.6032 36.32 11.859 2.112 0.67923 5.928 1.88 8.48 2.6684 2.552 0.78842 6.944 2.1536 9.76 3.0338 4.9442 1.5454 18.559 5.4281 32.16 9.1717 8.6074 2.3691 17.945 4.5687 27.091 6.382 8.107 1.6072 13.083 2.3063 22.685 3.1871 29.311 2.6888 47.988 3.0473 67.503 1.296 9.1394-0.82023 19.505-2.4231 25.76-3.9834 1.32-0.32925 3.264-0.77139 4.32-0.98253 4.0355-0.80678 16.346-5.0777 23.04-7.9931 8.1371-3.544 15.437-7.3835 22.048-11.597 14.534-9.2625 26.859-21.007 43.572-41.52 10.244-12.573 13.288-16.855 18.636-26.22 7.2217-12.645 16.492-32.001 24.22-50.571 0.91764-2.205 2.6882-6.4572 3.9345-9.4492s3.731-9.04 5.5214-13.44c9.7618-23.99 12.166-28.731 16.956-33.44 7.5562-7.428 17.784-12.21 29.755-13.911 13.061-1.8562 25.866 1.6451 46.719 12.774 1.848 0.98631 3.6383 1.7536 3.9785 1.705 0.77364-0.11044 0.92916-0.68564 1.9273-7.1283 1.8949-12.23 1.7587-21.722-0.45766-31.88-1.443-6.6133-6.1355-17.584-12.155-28.419-7.8959-14.212-20.323-27.111-33.773-35.058-14.185-8.3807-33.899-13.709-46.875-12.668-13.227 1.0606-22.598 3.7874-41.166 11.978-5.9182 2.6105-7.6408 3.0891-11.094 3.082-10.235-0.0211-18.455-8.2852-18.455-18.555 0-7.177 3.8342-13.336 10.391-16.69 4.6847-2.3966 12.737-5.7689 21.92-9.1802 7.3889-2.7448 17.109-5.4269 23.36-6.4458 9.2004-1.4996 19.924-2.0018 27.246-1.2759 14.275 1.4152 31.562 6.4249 45.234 13.109 18.71 9.1467 35.06 23.136 47.772 40.874 9.371 13.076 18.895 32.579 22.937 46.968 2.7551 9.8092 3.4905 15.918 3.5051 29.12 0.0102 9.2776-0.0778 11.221-0.72525 16-1.0482 7.7376-2.6724 15.664-4.6885 22.88-3.0921 11.067-5.5808 16.293-9.7603 20.494-4.4955 4.5188-9.0986 6.3729-15.84 6.3804-6.5729 7e-3 -8.4467-0.76486-34.4-14.176-7.616-3.9355-10.078-4.9965-14.203-6.1202-3.6151-0.98487-6.2942-1.0426-9.2431-0.1993-3.3227 0.95021-4.7391 1.8645-5.7419 3.7064-0.84986 1.5611-5.105 11.681-12.578 29.915-16.556 40.394-29.608 66.707-41.213 83.087-3.98 5.6176-13.103 17.049-20.646 25.869-23.874 27.918-46.002 44.027-78.086 56.846-5.5092 2.2013-16.716 5.8605-21.489 7.0169-2.2 0.53296-4.7969 1.1775-5.7709 1.4323-6.9076 1.8073-20.574 3.9403-31.669 4.9427-9.0418 0.8169-29.746 1.1964-41.12 0.75383zm-214.4-296.74c-20.558-3.6397-34.491-7.4374-48.16-13.127-16.361-6.8096-24.298-11.185-34.88-19.227-20.192-15.346-39.012-36.759-50.679-57.659-14.451-25.887-21.282-49.997-25.162-88.805-1.1148-11.15-1.3706-18.324-1.1782-33.031 0.21549-16.465 0.87937-26.158 2.9586-43.2 2.8273-23.174 7.5956-48.268 12.49-65.734 4.7665-17.009 8.5699-23.315 16.326-27.07 3.391-1.6416 5.504-2.018 10.309-1.8365 3.2668 0.12343 4.3016 0.0663 4.4208-0.2442 0.0856-0.22293-0.0697-2.4731-0.34495-5.0004-2.5822-23.707-1.7735-43.287 2.7078-65.562 1.9431-9.6587 4.2075-16.178 7.0911-20.417 4.9109-7.2185 14.341-10.604 23.257-8.3489 1.4514 0.36703 2.8232 0.59661 3.0484 0.51018 0.24013-0.0922 0.69714-1.7249 1.1048-3.9473 0.84698-4.6168 1.8579-8.9259 3.967-16.91 0.88337-3.344 1.8621-7.232 2.1749-8.64 1.0445-4.7008 3.216-12.047 6.3852-21.6 3.1499-9.4952 5.5044-14.119 12.873-25.28 6.9306-10.498 14.074-16.522 22.041-18.587 3.8866-1.0074 9.3033-0.77114 12.982 0.56632 3.5799 1.3016 5.9388 2.7645 8.4329 5.2294 2.5482 2.5184 4.4043 5.1855 5.9392 8.5343 1.1588 2.5281 4.1633 12.728 5.093 17.291 0.27867 1.3675 1.0786 4.2144 1.7775 6.3264 1.1785 3.5608 2.2822 7.9065 3.8201 15.04 0.34148 1.584 0.77019 3.3832 0.95267 3.9983s0.48583 1.9831 0.6741 3.04c0.40299 2.2623 4.1494 15.9 5.319 19.362 4.2959 12.716 13.455 29.48 22.997 42.091 7.2269 9.5513 14.655 18.262 20.431 23.957 8.2095 8.0958 24.846 23.449 43.378 40.032 15.43 13.808 16.684 14.928 22.742 20.32 3.0647 2.728 7.8188 6.976 10.565 9.44 5.8227 5.2251 20.358 18.158 23.017 20.48 7.6936 6.7176 31.08 27.689 46.334 41.549 16.581 15.066 22.623 20.844 33.374 31.918 11.998 12.358 14.625 15.138 24.178 25.585 17.871 19.542 28.34 32.04 38.843 46.371 1.848 2.5214 4.2149 5.747 5.2598 7.1679 2.7655 3.7606 8.2478 12.5 10.809 17.231 7.2276 13.349 11.496 27.637 13.233 44.298 0.41856 4.0136 0.49433 7.0319 0.36051 14.362-0.34384 18.834-2.2632 25.718-8.5427 30.636-3.2872 2.5748-7.104 3.8811-11.36 3.8879-8.4717 0.0134-15.788-5.7896-17.955-14.24-0.61763-2.4094-0.50057-7.1902 0.36343-14.844 1.1956-10.591-0.46512-25.093-4.0492-35.36-6.8133-19.517-30.175-49.439-74.8-95.805-12.217-12.694-17.317-17.605-34.44-33.168-11.523-10.473-16.104-14.599-26.096-23.502-2.3675-2.1094-5.8927-5.2774-7.8339-7.04-1.9412-1.7626-6.469-5.7966-10.062-8.9646s-8.0575-7.128-9.9215-8.8c-5.4402-4.8798-13.766-12.306-20.502-18.287-9.9188-8.8066-14.867-13.222-19.505-17.404-2.376-2.1426-8.856-7.9718-14.4-12.954-37.887-34.046-45.696-41.871-59.805-59.931-6.0053-7.687-9.8657-13.3-15.895-23.112-5.996-9.758-11.794-21.926-15.549-32.632-1.7968-5.123-6.1239-20.803-7.6386-27.68-0.56209-2.552-1.1235-5.072-1.2476-5.6-0.17014-0.72382-0.40716-0.96-0.96341-0.96-0.64127 0-0.85652 0.35576-1.6458 2.72-1.0285 3.081-3.6581 12.384-3.9798 14.08-0.11687 0.616-0.97276 4-1.902 7.52-2.7717 10.499-3.845 16.016-5.6036 28.8-1.8404 13.379-3.3037 18.102-7.095 22.898-2.3582 2.9834-7.1084 5.8879-11.211 6.8551-3.7133 0.8754-8.3453 0.46617-12.47-1.1017-0.9425-0.35823-2.0859-0.65139-2.5409-0.65148-0.90915-1.8e-4 -0.82345-0.46299-2.2812 12.32-0.52276 4.5839-0.51866 18.294 7e-3 24 1.4475 15.708 4.5239 38.215 6.0362 44.16 0.96642 3.7991 1.164 5.1878 1.3002 9.1367 0.14077 4.0833 0.0745 4.9888-0.53859 7.3538-1.7654 6.8104-6.023 11.534-12.751 14.147-6.4422 2.5015-14.211 0.99536-22.092-4.2828-1.3496-0.90395-2.8697-1.9909-3.378-2.4154-1.6988-1.4188-2.1822-0.99574-2.9953 2.6211-6.5636 29.196-10.957 65.218-10.96 89.852-1e-3 13.428 1.6267 31.75 4.1717 46.948 3.1555 18.843 7.0075 30.962 14.697 46.24 6.3875 12.69 12.677 21.652 23.398 33.343 5.8032 6.3275 14.184 13.995 20.977 19.191 9.3384 7.1432 25.575 14.805 40.314 19.024 3.0183 0.86397 6.8361 1.8671 8.4839 2.2292 6.5791 1.4457 12.212 2.5777 17.314 3.4796 6.807 1.2033 7.6018 1.4219 10.322 2.8394 5.911 3.0797 9.7505 9.5274 9.7505 16.374 0 6.8606-3.8311 13.281-9.7835 16.396-4.5706 2.3918-8.3764 2.6697-16.607 1.2124zm489.13-126.89c-2.818-0.63546-4.2846-1.2495-6.6641-2.7901-3.7936-2.4562-6.6239-6.7096-7.6176-11.447-1.6151-7.7008 2.7177-16.128 9.9564-19.364 1.639-0.73277 5.0565-1.7292 8.1273-2.3695 2.4307-0.50691 6.529-2.5014 10.018-4.8755 5.3955-3.6713 17.633-16.315 27.938-28.866 6.1488-7.4886 16.367-21.973 21.479-30.446 9.3943-15.572 20.67-38.328 25.533-51.528 0.64668-1.7556 1.4508-3.912 1.7869-4.792 0.77056-2.0175 3.198-10.5 3.198-11.175 0-1.0499-1.8353-0.43818-7.4933 2.4974-5.6368 2.9246-14.416 7.6754-16.347 8.8458-3.5732 2.1661-28.292 15.463-34.743 18.689-14.382 7.1925-19.089 8.4188-27.017 7.0397-5.8213-1.0126-10.633-3.1542-17.673-7.8658-5.4937-3.6768-10.662-8.2288-16.051-14.135-4.4484-4.8764-5.2176-5.3873-6.1575-4.0894-0.24147 0.33344-1.5355 1.9534-2.8756 3.6-3.6876 4.5309-5.2161 6.9614-8.1215 12.914-3.3496 6.8625-5.0532 10.88-10.857 25.6-6.0404 15.321-6.3785 15.997-9.6045 19.212-2.9498 2.9397-5.334 4.3357-9.0112 5.2762-6.0789 1.5547-11.917 0.20704-17.424-4.0222-2.3211-1.7824-7.5705-7.2752-13.519-14.146-3.4209-3.9511-4.9746-5.52-5.4667-5.52-1.2815 0-12.134 10.529-17.884 17.352-4.4293 5.2551-13.525 20.186-19.372 31.799-1.9957 3.9641-3.8305 6.22-6.5244 8.0218-6.3946 4.277-13.963 4.277-20.358 0-6.3691-4.2599-9.2435-12.751-6.7881-20.053 0.6801-2.0224 5.4532-11.301 8.8066-17.12 0.91287-1.584 2.4901-4.32 3.505-6.08 2.6106-4.5274 9.314-14.56 11.872-17.769 6.8499-8.5923 15.919-17.601 26.905-26.725 0.85696-0.71171 2.0621-1.6391 2.6781-2.0609 0.616-0.42174 2.1709-1.5493 3.4553-2.5058 8.5724-6.3835 16.337-8.1475 24.385-5.5399 5.9171 1.9172 9.3543 4.7998 12.96 10.869 1.4062 2.3668 2.0913 3.2331 2.56 3.237 0.52746 4e-3 1.0603-0.99264 3.0301-5.6699 5.0285-11.94 10.294-21.247 16.271-28.761 4.755-5.9775 6.0162-7.3874 11.56-12.924 8.3585-8.3475 12.466-11.024 18.958-12.356 2.3731-0.4866 3.1466-0.51669 5.282-0.20545 6.9853 1.0181 12.162 4.3296 16.899 10.811 1.3558 1.8549 8.9381 10.216 13.592 14.988 4.2999 4.4091 8.3919 7.572 9.7962 7.572 1.2336 0 10.815-4.8791 26.53-13.51 1.76-0.96661 5.504-3.0248 8.32-4.5738 2.816-1.549 6.416-3.5291 8-4.4002 10.024-5.5129 15.312-8.3151 19.68-10.429 2.728-1.3204 7.0451-3.5426 9.5935-4.9381 10.835-5.9332 15.914-8.094 21.245-9.0385 3.9802-0.70513 7.3817-0.50042 11.081 0.66688 4.428 1.3972 6.2725 2.4971 9.2985 5.5449 3.261 3.2844 5.0265 6.418 6.2916 11.167 0.71923 2.6995 0.83034 3.7685 0.83891 8.0716 0.0134 6.7803-0.89475 11.87-4.8618 27.244-3.1018 12.021-5.6444 19.688-9.8017 29.556-9.7108 23.051-24.837 50.708-36.753 67.2-3.5616 4.9295-10.059 13.585-12.012 16-1.1382 1.408-2.585 3.196-3.2153 3.9732-5.8201 7.1784-18.039 20.394-23.009 24.886-4.4897 4.0576-5.8176 5.0945-10.8 8.4333-8.6646 5.8062-13.715 7.9796-24.457 10.524-3.8332 0.90787-6.4932 1.057-8.9547 0.50192z" fill="#9fd6e1" stroke-width=".32"/>
</svg>
